<?xml version="1.0" encoding="utf-8"?>
<!-- Generator: Adobe Illustrator 28.2.0, SVG Export Plug-In . SVG Version: 6.00 Build 0)  -->
<svg version="1.1" id="Layer_1" xmlns="http://www.w3.org/2000/svg" xmlns:xlink="http://www.w3.org/1999/xlink" x="0px" y="0px"
	 viewBox="0 0 603.6 79.7" style="enable-background:new 0 0 603.6 79.7;" xml:space="preserve">
<style type="text/css">
	.st0{fill:#FFFFFF;}
</style>
<g>
	<path class="st0" d="M246.3,50.8c1.8-1.6,3.4-3.4,4.8-5.5c1.1-1.7,3.8-6.4,8.1-13.9l5.3-9.1c-2.9,0.9-5.7,2-8.3,3.7
		c0,0,3.8-3.5,9.4-5.6c2.8-4.4,7.3-10.7,12-13.8c1.1-0.7,2.1-1.2,3.2-1.5l0.2,0c-1.1-0.4-2.2-0.8-3.4-1.1c-3-0.8-6.2-1.2-9.5-1.2
		c-20.4,0-37,16.6-37,37c0,5,1,9.9,2.9,14.2c1.1,0.4,2.1,0.7,3.3,0.7C240.3,54.7,243.3,53.4,246.3,50.8z"/>
	<path class="st0" d="M282.9,52.9L282.9,52.9c-0.9,0.9-0.9,3-0.9,3c0.2,0.1,0.6,0.5,0.9,0.8l0.2,0.3l0.4,0.5l0.3,0.3
		c-0.1-0.2-0.2-0.4-0.3-0.7C283,55.5,282.9,52.9,282.9,52.9z"/>
	<polygon class="st0" points="44.7,32.3 16.4,32.3 16.4,14.5 49,14.5 55.1,14.5 55.1,4.9 49,4.9 49,4.9 4.3,4.9 4.3,74.4 16.4,74.4 
		16.4,41.4 44.7,41.4 	"/>
	<polygon class="st0" points="222.7,59.8 222.3,60.2 221.9,60.6 221.5,61 221.1,61.3 220.7,61.7 220.3,62 219.8,62.3 219.4,62.6 
		218.9,62.9 218.4,63.2 217.9,63.4 217.5,63.7 217,63.9 216.5,64.2 215.9,64.4 215.4,64.6 214.8,64.8 214.3,64.9 213.7,65.1 
		213.2,65.2 212.6,65.4 212,65.5 211.4,65.6 210.8,65.7 210.1,65.8 209.5,65.9 208.9,65.9 208.2,66 207.5,66 206.9,66 206.2,66 
		205.5,66 204.9,66 204.3,66 203.7,65.9 203.1,65.9 202.5,65.8 201.9,65.7 201.3,65.6 200.7,65.5 200.2,65.3 199.6,65.2 199.1,65 
		198.5,64.9 198,64.7 197.5,64.5 197,64.3 196.5,64 196,63.8 195.5,63.5 195,63.3 194.5,63 194,62.7 193.6,62.4 193.1,62.1 
		192.6,61.7 192.2,61.4 191.8,61 191.3,60.6 190.9,60.2 190.5,59.8 190.1,59.4 189.7,59 189.3,58.5 188.9,58.1 188.5,57.6 
		188.2,57.1 187.8,56.7 187.5,56.2 187.2,55.7 186.9,55.2 186.6,54.7 186.3,54.1 186,53.6 185.8,53.1 185.5,52.5 185.3,52 
		185.1,51.4 184.9,50.8 184.7,50.2 184.5,49.6 184.3,49.1 184.2,48.5 184,47.8 183.9,47.2 183.8,46.6 183.7,45.9 183.6,45.3 
		183.5,44.6 183.4,43.9 183.4,43.3 183.3,42.6 183.3,41.9 183.3,41.2 183.3,40.5 183.3,39.7 183.3,39 183.3,38.2 183.4,37.5 
		183.4,36.8 183.5,36.1 183.6,35.4 183.7,34.7 183.8,34 183.9,33.4 184,32.7 184.2,32 184.3,31.4 184.5,30.8 184.7,30.2 184.8,29.5 
		185,28.9 185.3,28.3 185.5,27.7 185.7,27.2 186,26.6 186.2,26 186.5,25.5 186.8,24.9 187.1,24.4 187.4,23.9 187.7,23.3 188.1,22.8 
		188.4,22.3 188.8,21.8 189.1,21.4 189.5,20.9 189.9,20.4 190.3,20 190.7,19.5 191.1,19.1 191.6,18.7 192,18.3 192.4,17.9 
		192.9,17.6 193.3,17.2 193.8,16.9 194.3,16.6 194.8,16.3 195.3,16 195.7,15.7 196.2,15.5 196.7,15.2 197.3,15 197.8,14.8 
		198.3,14.6 198.9,14.4 199.4,14.2 200,14.1 200.6,13.9 201.1,13.8 201.7,13.7 202.3,13.6 202.9,13.5 203.5,13.5 204.1,13.4 
		204.8,13.4 205.4,13.4 206,13.3 206.7,13.4 207.4,13.4 208.1,13.4 208.7,13.4 209.4,13.4 210,13.5 210.7,13.5 211.3,13.5 
		211.9,13.6 212.4,13.7 213,13.7 213.6,13.8 214.1,13.9 214.7,14 215.2,14.1 215.7,14.2 216.2,14.2 216.7,14.4 217.2,14.5 
		217.6,14.6 218.1,14.7 218.5,14.9 219,15 219.4,15.2 219.8,15.3 220.2,15.5 220.6,15.6 220.9,15.8 221.3,16 221.6,16.1 222,16.3 
		222.9,16.9 227.1,7.8 226.1,7.3 225.6,7.1 225.1,6.8 224.6,6.6 224,6.4 223.5,6.2 223,6 222.4,5.9 221.8,5.7 221.3,5.5 220.7,5.4 
		220.1,5.2 219.5,5.1 218.8,5 218.2,4.8 217.5,4.7 216.9,4.6 216.2,4.5 215.5,4.4 214.9,4.3 214.2,4.2 213.5,4.1 212.7,4.1 212,4 
		211.3,3.9 210.5,3.9 209.7,3.9 209,3.8 208.2,3.8 207.4,3.8 206.6,3.8 205.8,3.8 204.8,3.8 203.8,3.8 202.9,3.9 202,3.9 201.1,4 
		200.1,4.1 199.3,4.3 198.4,4.4 197.5,4.6 196.6,4.8 195.8,5 194.9,5.2 194.1,5.5 193.3,5.7 192.5,6 191.7,6.4 190.9,6.7 190.1,7 
		189.3,7.4 188.6,7.8 187.8,8.2 187.1,8.7 186.4,9.1 185.7,9.6 185,10.1 184.3,10.6 183.6,11.1 182.9,11.7 182.3,12.2 181.6,12.8 
		181,13.5 180.4,14.1 179.8,14.7 179.2,15.4 178.6,16.1 178.1,16.7 177.6,17.4 177.1,18.1 176.6,18.8 176.1,19.6 175.6,20.3 
		175.2,21 174.8,21.8 174.4,22.5 174,23.3 173.7,24.1 173.3,24.9 173,25.7 172.7,26.5 172.4,27.3 172.2,28.2 171.9,29 171.7,29.9 
		171.5,30.7 171.3,31.6 171.2,32.5 171,33.4 170.9,34.3 170.8,35.2 170.7,36.1 170.6,37 170.6,38 170.6,38.9 170.6,39.9 170.6,40.9 
		170.6,41.9 170.6,42.8 170.7,43.8 170.8,44.8 170.9,45.7 171,46.6 171.1,47.5 171.3,48.4 171.5,49.3 171.7,50.2 171.9,51 
		172.1,51.9 172.3,52.7 172.6,53.6 172.9,54.4 173.2,55.2 173.5,56 173.8,56.7 174.2,57.5 174.5,58.3 174.9,59 175.3,59.7 
		175.7,60.5 176.2,61.2 176.7,61.9 177.1,62.5 177.6,63.2 178.1,63.9 178.7,64.5 179.2,65.1 179.8,65.8 180.4,66.4 181,67 
		181.6,67.5 182.2,68.1 182.8,68.6 183.5,69.1 184.1,69.6 184.8,70.1 185.5,70.5 186.2,71 186.9,71.4 187.7,71.8 188.4,72.2 
		189.2,72.5 189.9,72.8 190.7,73.2 191.5,73.5 192.3,73.7 193.1,74 194,74.2 194.8,74.4 195.7,74.6 196.6,74.8 197.4,75 198.4,75.1 
		199.3,75.2 200.2,75.4 201.1,75.5 202.1,75.5 203,75.6 204,75.6 205,75.6 205.9,75.6 206.9,75.6 207.8,75.5 208.7,75.5 209.6,75.4 
		210.5,75.3 211.4,75.2 212.3,75.1 213.1,74.9 214,74.8 214.8,74.6 215.6,74.5 216.5,74.2 217.2,74 218.1,73.8 218.8,73.5 
		219.6,73.3 220.4,73 221.1,72.7 221.9,72.4 222.6,72.1 223.3,71.7 224,71.4 224.7,71 225.4,70.6 226.1,70.2 226.8,69.8 227.4,69.3 
		228.1,68.9 228.7,68.4 229.3,67.9 230.4,67 223.5,58.9 	"/>
	<path class="st0" d="M77,4h-0.8L49,61.6l-6,12.9h6h7.6L62.5,60H77h14.6l5.5,14.4h13.5L79.8,4H77z M77,52H65.9L77,25.3l0.5-1.2
		L88,52H77z"/>
	<polygon class="st0" points="129.7,4.9 117.5,4.9 117.5,74.4 166,74.4 166,64.9 129.7,64.9 	"/>
	<polygon class="st0" points="362.1,51.2 322.5,4.9 317.3,4.9 317.3,74.4 328.9,74.4 328.9,26.5 369.5,75.4 373.7,75.4 373.7,4.9 
		362.1,4.9 	"/>
	<polygon class="st0" points="422.8,74.4 471.3,74.4 471.3,64.9 434.9,64.9 434.9,41.4 461.4,41.4 461.4,32.3 434.9,32.3 
		434.9,14.5 471.9,14.5 471.9,4.9 422.8,4.9 	"/>
	<path class="st0" d="M518.7,42.7l0.4-0.1l0.4-0.1l0.4-0.1l0.4-0.1l0.4-0.1L521,42l0.4-0.2l0.4-0.2l0.4-0.2l0.4-0.2l0.4-0.2l0.4-0.2
		l0.4-0.2l0.4-0.2l0.4-0.2l0.3-0.2l0.3-0.2l0.3-0.2l0.3-0.2l0.3-0.3l0.3-0.3l0.3-0.3l0.3-0.3l0.3-0.3l0.3-0.3l0.3-0.3l0.3-0.3
		l0.3-0.3l0.3-0.3l0.3-0.3l0.3-0.3l0.3-0.3l0.3-0.3l0.3-0.3l0.2-0.3l0.2-0.4l0.2-0.3l0.2-0.4l0.2-0.4l0.2-0.4l0.2-0.4l0.2-0.4
		l0.2-0.4l0.2-0.4l0.2-0.4l0.1-0.4l0.2-0.4l0.1-0.4l0.1-0.4l0.1-0.4l0.1-0.4l0.1-0.4l0.1-0.4l0.1-0.4l0.1-0.4l0.1-0.4l0-0.4l0-0.4
		l0-0.4l0-0.4v-0.4l0-1.2l-0.1-1.2l-0.1-1.2l-0.2-1.1l-0.3-1.1l-0.3-1l-0.4-1l-0.5-1l-0.5-0.9l-0.6-0.9l-0.6-0.8l-0.7-0.8l-0.7-0.8
		l-0.8-0.7l-0.8-0.7l-0.9-0.6l-1-0.6l-1-0.6l-1.1-0.5L522,7l-1.2-0.4l-1.2-0.4l-1.3-0.4l-1.3-0.3l-1.4-0.3L514,4.9l-1.5-0.2L511,4.6
		l-1.6-0.1l-1-0.1l-0.6,0l-1.7-0.1l-1.8,0h-0.2h-0.2h-0.2l-0.3,0h-0.3h-0.3h-0.3H502l-0.3,0h-0.3h-0.3l-0.3,0h-0.3l-0.3,0h-0.3
		l-0.4,0H499l-0.4,0l-0.4,0h-0.4l-0.4,0l-0.4,0l-0.4,0l-0.4,0l-0.4,0h-0.4l-0.5,0l-0.5,0l-0.5,0l-0.5,0l-0.5,0l-0.5,0l-0.5,0l-0.5,0
		l-0.5,0l-0.4,0l-0.4,0l-0.4,0l-0.8,0l-0.4,0l-0.4,0l-0.3,0h-0.3l-0.3,0l-0.3,0h-0.3l-0.3,0h-0.2l-0.2,0h-0.2l-0.2,0h-0.2l-0.2,0
		h-0.2h-0.1l-0.2,0h-0.1h-0.1h-0.1h-0.1h-0.1h-0.1l-0.6,0v69.5h12.2V44.7l0.4,0l0.5,0l0.5,0l0.5,0l0.5,0l0.4,0l0.4,0l0.4,0l0.4,0
		l0.4,0l0.4,0l0.4,0l0.4,0l0.4,0l0.4,0h0.4l0.4,0l0.3,0h0.3l0.3,0h0.3l0.3,0h0.3l0.3,0h0.3h0.3h0.3l0.3,0h0.2h0.2l1.9,2.7l19.5,26.7
		h14l-23.4-31.6L518.7,42.7z M517.9,32.5l-0.2,0.2l-0.2,0.2l-0.2,0.2l-0.2,0.2l-0.3,0.2l-0.3,0.2l-0.3,0.2l-0.3,0.1l-0.3,0.2
		l-0.3,0.1l-0.3,0.1l-0.3,0.1l-0.4,0.1l-0.4,0.1l-0.4,0.1l-0.4,0.1l-0.4,0.1l-0.4,0.1l-0.4,0.1l-0.4,0.1l-0.4,0.1l-0.5,0.1l-0.5,0.1
		l-0.5,0.1l-0.5,0.1l-0.5,0.1l-0.5,0.1h0l-0.5,0.1l-0.5,0l-0.5,0l-0.5,0l-0.5,0l-0.6,0h-0.6l-0.6,0l-0.6,0h-0.6h-0.2h-0.2l-0.2,0
		h-0.2h-0.2h-0.2H501l-0.2,0h-0.2l-0.2,0h-0.2l-0.2,0h-0.2l-0.2,0l-0.2,0h-0.2l-0.2,0l-0.2,0l-0.2,0l-0.2,0l-0.2,0l-0.2,0l-0.2,0
		l-0.2,0l-0.2,0l-0.2,0l-0.2,0l-0.2,0l-0.2,0l-0.2,0V14.5h0.1l0.3,0l0.3,0l0.3,0l0.3,0l0.3,0l0.2,0l0.3,0l0.2,0l0.2,0l0.2,0l0.2,0
		l0.2,0l0.2,0h0.2l0.2,0l0.2,0h0.2l0.2,0l0.2,0h0.2l0.1,0h0.2h0.1l0.1,0h0.1h0.1h0.1h0.1l0.1,0h0.1l0.6,0h0.6l0.6,0l0.6,0l0.6,0
		l0.6,0l0.6,0l0.6,0l0.6,0l0.5,0l0.5,0.1l0.4,0l0.1,0l0.5,0.1l0.5,0.1l0.5,0.1l0.5,0.1l0.5,0.1l0.5,0.1l0.4,0.1l0.4,0.1l0.4,0.1
		l0.4,0.1l0.4,0.1l0.4,0.1l0.4,0.1l0.4,0.1l0.3,0.1l0.3,0.1l0.3,0.1l0.3,0.2l0.3,0.1l0.3,0.1l0.3,0.2l0.3,0.2l0.3,0.2l0.3,0.2
		l0.2,0.2l0.2,0.2l0.2,0.2l0.2,0.2l0.2,0.2l0.2,0.2l0.2,0.2l0.2,0.2l0.2,0.2l0.1,0.2l0.1,0.2l0.2,0.2l0.1,0.2l0.1,0.2l0.1,0.3
		l0.1,0.2l0.1,0.3l0.1,0.3l0.1,0.3l0.1,0.3l0.1,0.3l0.1,0.3l0.1,0.3l0,0.3l0,0.3l0,0.3v0.3l0,0.3l0,0.4v0.4l0,0.4l0,0.4l0,0.4l0,0.4
		l-0.1,0.4l-0.1,0.4l-0.1,0.4l-0.1,0.3l-0.1,0.3l-0.1,0.3l-0.1,0.3l-0.1,0.3l-0.1,0.3l-0.1,0.3l-0.1,0.3l-0.2,0.3l-0.1,0.2l-0.2,0.3
		l-0.2,0.2l-0.2,0.2l-0.2,0.2l-0.2,0.2l-0.2,0.2l-0.2,0.2L517.9,32.5z"/>
	<path class="st0" d="M285.2,48c-0.3,0.2-0.7,0.6-0.9,1.2c-0.3,0.5-0.5,1.1-0.7,1.6c-0.2,0.4-0.3,0.8-0.3,0.8l0.3,0.4
		c0.2,0.3,0.5,0.5,0.7,0.8l0.1,0.1c0.4,0.5,0.9,1.5,0.9,1.5C284.7,51.8,285.2,48,285.2,48z"/>
	<path class="st0" d="M599.4,23.7l-0.1-1.2l-0.2-1.2l-0.2-1.2l-0.3-1.1l-0.4-1.1l-0.5-1l-0.5-1l-0.6-0.9l-0.7-0.9l-0.7-0.9l-0.8-0.8
		l-0.9-0.8l-0.9-0.8l-1-0.7l-1.1-0.7l-1.2-0.6L588,8.3l-1.3-0.5l-1.3-0.5l-1.4-0.5l-1.5-0.4l-1.6-0.4l-1.6-0.3l-1.7-0.3l-1.8-0.3
		L574,5l-0.3,0l-1.6-0.1l-2-0.1l-2-0.1L566,4.5l-2.2,0h-0.2h-0.2h-0.2h-0.2h-0.3l-0.3,0h-0.3H562l-0.3,0h-0.4l-0.4,0h-0.4l-0.4,0
		h-0.4l-0.4,0l-0.5,0l-0.5,0h-0.5l-0.5,0l-0.5,0l-0.6,0l-0.6,0l-0.6,0l-0.6,0l-0.6,0l-0.6,0l-0.7,0l-0.7,0l-0.7,0l-0.7,0l-0.7,0
		L548.3,5v69.5h12.2V48.2l0.1,0l0.4,0l0.4,0l0.4,0l0.3,0l0.3,0l0.3,0l0.3,0l0.3,0l0.3,0l0.3,0l0.3,0l0.3,0l0.3,0l0.3,0l0.2,0h0.2
		l0.2,0l0.2,0h0.2l0.2,0h0.2l0.2,0h0.2h0.2h0.2l0.2,0h0.2h0.1h0.1h0.1l1.9,0l1.9-0.1l1.8-0.1l0.2,0l1.5-0.1l1.7-0.2l1.6-0.2l1.6-0.3
		l1.5-0.3l1.4-0.4l1.4-0.4l1.3-0.5l1.2-0.5l1.2-0.6l1.2-0.6l1.1-0.7l1-0.7l1-0.8l0.9-0.8l0.8-0.9l0.8-0.9l0.7-0.9l0.7-1l0.6-1
		l0.5-1.1l0.5-1.1l0.4-1.2l0.3-1.2l0.3-1.3l0.2-1.3l0.2-1.4l0.1-1.4l0-1.4L599.4,23.7z M587,26.8l-0.1,0.8l-0.1,0.8l-0.1,0.7
		l-0.2,0.7l-0.2,0.7L586,31l-0.3,0.6l-0.3,0.6l-0.4,0.6l-0.4,0.5l-0.4,0.5l-0.5,0.5l-0.5,0.5l-0.5,0.5l-0.6,0.4l-0.6,0.4l-0.7,0.4
		l-0.7,0.4l-0.8,0.3l-0.8,0.3l-0.8,0.3l-0.9,0.2l-0.9,0.2l-0.9,0.2l-1,0.2l-0.3,0.1l-0.7,0.1l-1.1,0.1l-1.1,0.1l-1.2,0.1l-1.2,0
		l-1.2,0h0l0,0h-0.1H567h-0.1h-0.1l-0.1,0h-0.1h-0.1l-0.1,0h-0.2l-0.2,0l-0.4,0l-0.4,0h-0.2l-0.3,0l-0.2,0l-0.3,0l-0.3,0l-0.3,0
		l-0.3,0l-0.3,0l-0.3,0l-0.3,0l-0.4,0l-0.4,0l-0.4,0l-0.4,0l-0.3,0V14.4l0.2,0l0.2,0l0.2,0l0.2,0l0.2,0l0.2,0l0.2,0l0.2,0l0.2,0
		l0.2,0l0.2,0l0.2,0l0.2,0h0.2l0.2,0l0.2,0h0.2l0.2,0l0.2,0h0.2l0.2,0h0.2h0.2l0.1,0h0.2h0.1h0.2h0.1l0.1,0h0.1l1.3,0l1.3,0l1.2,0.1
		l1.2,0.1l1.2,0.1l1.1,0.1l0.6,0.1l0.5,0.1l1,0.2l1,0.2l0.9,0.2l0.9,0.2l0.9,0.3l0.8,0.3l0.8,0.3l0.7,0.3l0.7,0.4l0.6,0.4l0.6,0.4
		l0.5,0.4l0.5,0.5l0.5,0.5l0.4,0.5l0.4,0.5l0.3,0.5l0.3,0.6l0.3,0.6l0.2,0.6l0.2,0.6l0.1,0.7l0.1,0.7l0.1,0.7l0,0.7L587,26.8z"/>
	<path class="st0" d="M285,59.7c0,0,0.6,0.2,1.3,0.6c0.4,0.2,0.8,0.6,1.1,1c0,0,0.4,0.3,0.1-0.4c-0.2-0.5-0.8-1.6-1.2-2.6
		c-0.1-0.3-0.2-0.6-0.3-0.8c-0.2-1-0.3-1-0.6-2.1C285.4,55.4,284.7,57.7,285,59.7z"/>
	<path class="st0" d="M293.8,32.5c0.3-0.6,0.3-1.2,0-1.5l-0.5,0c-0.2,0.1-0.4,0.3-0.5,0.6c-0.3,0.6-0.3,1.2,0,1.4l0.5,0
		C293.4,33,293.6,32.8,293.8,32.5z"/>
	<path class="st0" d="M293.2,12.5c-2.1-2-4.5-3.7-7-5.1c-0.7-0.4-1.3-0.7-2-1c-0.2-0.1-0.5-0.2-0.7-0.3l-0.6-0.3
		c-0.4-0.2-0.7-0.3-1.1-0.4h-0.1c-1.1,0.1-2.4,0.9-4,2.5c-0.8,0.8-1.7,1.8-2.6,3c-1.2,1.6-3,4.4-5.2,8.3c2.4-0.6,5.1-0.9,7.8-0.8
		c1.7,0,3.5,0.2,5.2,0.6l0.6,0.2c0.2,0.1,0.5,0.1,0.7,0.2c0.7,0.2,1.3,0.4,2,0.7c3,1.3,5.5,3.4,7,6.5c0.4,0.8,0.8,1.7,1,2.7
		c0,0,12.1,4.6,6.3,15.8c0,0,2.3-7.3-3-10.3c0,0,0.4,2.6-4.3,4.1c-0.4,0.1-0.9,0.3-1.4,0.4c-2.4,0.5-4.2,0.7-5.6,0.9
		c-0.8,0.1-1.4,0.2-2,0.3c-0.3,0-0.5,0.1-0.7,0.2l-0.6,0.2c-0.4,0.2-0.8,0.4-1.2,0.6c0,0,0.3-0.6,1.2-1.4l0.6-0.5
		c0.2-0.2,0.5-0.3,0.7-0.5l0.6-0.3c0.4-0.2,0.9-0.4,1.4-0.7c2.5-1.4,5.5-3.9,5.4-8.1c-0.1-3.2-2.6-5.9-5.4-7.6c-0.7-0.4-1.3-0.7-2-1
		c-0.2-0.1-0.5-0.2-0.7-0.3l-0.6-0.2c-0.6-0.2-1.1-0.3-1.6-0.4c-0.9-0.1-2.1-0.2-3.6-0.2c-2.5,0-5.6,0.2-8.9,0.8l-0.8,1.2l-2.7,5.1
		c-3.3,6.3-6.1,11-8.5,14.2c-2.4,3.2-5.1,6-8.1,8.5c-4.2,3.4-8.2,5.1-11.8,5.1c-0.8,0-1.5-0.1-2.2-0.2c5.9,12.7,18.7,21.6,33.6,21.6
		c3.3,0,6.4-0.4,9.5-1.2c1.8-0.5,3.5-1.1,5.2-1.8l0.6-0.3c0.2-0.1,0.5-0.2,0.7-0.3c0.7-0.3,1.3-0.7,2-1.1c2.5-1.4,4.9-3.1,7-5.1
		c7.4-6.8,12-16.5,12-27.2C305.2,29,300.6,19.3,293.2,12.5z M277,28.2c0,0,0.3,0,0.7,0c0.3,0,0.7,0,0.8,0l0.2,0.2
		c0,0.2-0.4,0.9-0.7,1.5c-0.3,0.5-0.2,2.5-0.2,2.5l-0.2-0.2C275.8,30.4,277,28.2,277,28.2z M275.4,30.3c0.4,1.7,1,2.9,2.2,3.4
		c0.5,0.2,1.2,0.4,1.9,0.3c2.2,0,3-1.6,3.3-2.7l0.1-0.3c0.1-0.4,0-0.8-0.1-1.1c-0.2-0.7-0.5-1.1-0.5-1.1l0.5,0.1
		c0.2,0.1,0.4,0.1,0.6,0.2c0.3,0.1,0.5,0.2,0.7,0.2c1.2,0.4,1.5,0.8,1.5,1c0.1,0.3-0.5,0.4-0.7,0.8c-0.2,0.2-0.4,0.9-0.8,1.8
		c-0.2,0.4-0.4,0.8-0.7,1.1l-0.4,0.4l-0.2,0.2c-0.8,0.6-1.9,1.1-3.1,1c-0.7,0-1.4-0.2-2-0.6c-1-0.6-1.9-1.5-2.2-2.6
		C275.2,31.3,275.4,30.3,275.4,30.3z M294,41.3c0,0-0.2,0.4-0.8,0.9c-0.4,0.4-1.2,0.9-2.2,1.4c-1.8,0.8-3.8,2.1-4.8,3.9
		c-0.4,0.7-0.7,1.5-0.7,2.5c0,1.4,0.2,2.9,0.7,4.6c0.5,1.9,1.2,4.1,2.3,7c0,0,0.4,0.6,0.3,2.4c0,0-0.9-1.7-2.6-2.4
		c-0.5-0.2-1.2-0.3-1.9-0.2l-0.1,0c-0.2,0-0.5,0.1-0.7,0.1l-0.6,0.2c-1.6,0.4-3.5,1.1-5.2,1.5c-1.2,0.3-2.2,0.5-3.1,0.4
		c0,0,0.7-1,0.7-2.8c0,0-6.2,4.6-9.7,4.1l1.2-2.3c0,0-5.7,1.9-10.3-0.5c0,0-1-1.9-1-3.8c0,0-1.7-0.6-4.8,3.4c0,0,1.7-9,6.9-14.8
		c5.1-5.9,11-9.3,15.3-7.6c0,0-3.9,1-5.8,3.8c-1.9,2.8-4.5,12.3-8.9,15.4c0,0,2.1,1.6,5.8,1.3c3.7-0.3,7.7-1.3,11.9-6.3
		c0.6-0.8,1.2-1.5,1.8-2.3c1.7-2.6,3.1-5.3,5.2-7.3l0.6-0.6c0.2-0.2,0.5-0.4,0.7-0.6c0.6-0.4,1.2-0.8,2-1.2c0.7-0.3,1.5-0.6,2.4-0.8
		c0,0,2.1-0.4,4.6-0.3c2.5,0.1,5.4,0.8,6.7,3.1C299.9,43.4,297.4,41,294,41.3z"/>
</g>
</svg>
