<?xml version="1.0" encoding="utf-8"?>
<!-- Generator: Adobe Illustrator 28.2.0, SVG Export Plug-In . SVG Version: 6.00 Build 0)  -->
<svg version="1.1" id="Layer_1" xmlns="http://www.w3.org/2000/svg" xmlns:xlink="http://www.w3.org/1999/xlink" x="0px" y="0px"
	 viewBox="0 0 77.9 77.9" style="enable-background:new 0 0 77.9 77.9;" xml:space="preserve">
<style type="text/css">
	.st0{fill:#FFFFFF;}
</style>
<path class="st0" d="M8.1,53.9c-1.2,0-2.2-0.3-3.3-0.7C3,48.8,2,44,2,38.9c0-20.4,16.6-37,37-37c3.3,0,6.4,0.4,9.5,1.2
	c1.2,0.3,2.3,0.7,3.4,1.1l-0.2,0c-1.1,0.3-2.2,0.8-3.2,1.5c-4.7,3-9.2,9.4-12,13.8c-5.6,2.1-9.4,5.6-9.4,5.6
	c2.6-1.7,5.4-2.8,8.3-3.7L30,30.6c-4.3,7.5-7,12.2-8.1,13.9c-1.4,2.1-3,4-4.8,5.5C14.1,52.6,11.1,53.9,8.1,53.9z M53.6,52.2
	L53.6,52.2c-0.9,0.9-0.9,3-0.9,3c0.2,0.1,0.6,0.5,0.9,0.8l0.2,0.3l0.4,0.5l0.3,0.3c-0.1-0.2-0.2-0.4-0.3-0.7
	C53.7,54.8,53.6,52.2,53.6,52.2z M55.9,47.2c-0.3,0.2-0.7,0.6-0.9,1.2c-0.3,0.5-0.5,1.1-0.7,1.6c-0.2,0.4-0.3,0.8-0.3,0.8l0.3,0.4
	c0.2,0.3,0.5,0.5,0.7,0.8l0.1,0.1c0.4,0.5,0.9,1.5,0.9,1.5C55.4,51,55.9,47.2,55.9,47.2z M55.7,58.9c0,0,0.6,0.2,1.3,0.6
	c0.4,0.2,0.8,0.6,1.1,1c0,0,0.4,0.3,0.1-0.4c-0.2-0.5-0.8-1.6-1.2-2.6c-0.1-0.3-0.2-0.6-0.3-0.8c-0.2-1-0.3-1-0.6-2.1
	C56.1,54.6,55.4,56.9,55.7,58.9z M64.5,31.8c0.3-0.6,0.3-1.2,0-1.5l-0.5,0c-0.2,0.1-0.4,0.3-0.5,0.6c-0.3,0.6-0.3,1.2,0,1.4l0.5,0
	C64.2,32.3,64.4,32.1,64.5,31.8z M75.9,38.9c0,10.7-4.6,20.4-12,27.2c-2.1,2-4.5,3.7-7,5.1c-0.7,0.4-1.3,0.7-2,1.1
	c-0.2,0.1-0.5,0.2-0.7,0.3l-0.6,0.3c-1.7,0.7-3.4,1.3-5.2,1.8c-3,0.8-6.2,1.2-9.5,1.2C24,75.9,11.2,67,5.3,54.3
	c0.8,0.1,1.5,0.2,2.2,0.2c3.6,0,7.6-1.7,11.8-5.1c3.1-2.5,5.8-5.3,8.1-8.5c2.3-3.2,5.2-7.9,8.5-14.2l2.7-5.1l0.8-1.2
	c3.3-0.6,6.5-0.8,8.9-0.8c1.5,0,2.7,0.1,3.6,0.2c0.5,0.1,1.1,0.2,1.6,0.4l0.6,0.2c0.2,0.1,0.5,0.2,0.7,0.3c0.7,0.3,1.3,0.6,2,1
	c2.9,1.7,5.3,4.4,5.4,7.6c0.1,4.2-3,6.7-5.4,8.1c-0.5,0.3-1,0.5-1.4,0.7l-0.6,0.3c-0.3,0.1-0.5,0.3-0.7,0.5l-0.6,0.5
	c-0.9,0.7-1.2,1.4-1.2,1.4c0.3-0.3,0.7-0.5,1.2-0.6l0.6-0.2c0.2-0.1,0.5-0.1,0.7-0.2c0.6-0.1,1.2-0.2,2-0.3c1.4-0.2,3.2-0.5,5.6-0.9
	c0.5-0.1,1-0.2,1.4-0.4c4.7-1.5,4.3-4.1,4.3-4.1c5.3,3,3,10.3,3,10.3C77.1,33,65,28.4,65,28.4c-0.3-1-0.6-1.9-1-2.7
	c-1.5-3.1-4-5.2-7-6.5c-0.7-0.3-1.3-0.5-2-0.7c-0.2-0.1-0.5-0.2-0.7-0.2l-0.6-0.2c-1.7-0.4-3.4-0.6-5.2-0.6
	c-2.7-0.1-5.4,0.2-7.8,0.8c2.3-3.9,4-6.7,5.2-8.3c0.9-1.2,1.8-2.2,2.6-3c1.6-1.6,2.9-2.4,4-2.5h0.1c0.4,0.2,0.7,0.3,1.1,0.4l0.6,0.3
	c0.2,0.1,0.5,0.2,0.7,0.3c0.7,0.3,1.3,0.7,2,1c2.5,1.4,4.9,3.1,7,5.1C71.3,18.5,75.9,28.2,75.9,38.9z M48.4,31.5l0.2,0.2
	c0,0-0.1-2,0.2-2.5c0.3-0.5,0.7-1.2,0.7-1.5l-0.2-0.2c-0.1,0-0.5,0-0.8,0c-0.3,0-0.7,0-0.7,0S46.5,29.7,48.4,31.5z M46.2,31.7
	c0.3,1.2,1.1,2.1,2.2,2.6c0.6,0.4,1.3,0.6,2,0.6c1.2,0.1,2.3-0.4,3.1-1l0.2-0.2l0.4-0.4c0.3-0.4,0.5-0.8,0.7-1.1
	c0.4-0.8,0.6-1.5,0.8-1.8c0.3-0.4,0.8-0.5,0.7-0.8c-0.1-0.2-0.4-0.5-1.5-1c-0.2-0.1-0.5-0.1-0.7-0.2c-0.2-0.1-0.4-0.1-0.6-0.2
	l-0.5-0.1c0,0,0.4,0.4,0.5,1.1c0.1,0.3,0.1,0.7,0.1,1.1l-0.1,0.3c-0.3,1.1-1.1,2.7-3.3,2.7c-0.7,0-1.4-0.1-1.9-0.3
	c-1.2-0.5-1.9-1.7-2.2-3.4C46.2,29.6,45.9,30.6,46.2,31.7z M70.7,42.7c-1.3-2.3-4.2-3-6.7-3.1c-2.5-0.1-4.6,0.3-4.6,0.3
	c-0.9,0.2-1.7,0.5-2.4,0.8c-0.8,0.3-1.4,0.7-2,1.2c-0.3,0.2-0.5,0.4-0.7,0.6L53.6,43c-2.1,2-3.4,4.7-5.2,7.3
	c-0.5,0.8-1.1,1.6-1.8,2.3c-4.2,5-8.2,6-11.9,6.3C31,59.3,29,57.6,29,57.6c4.4-3.1,7-12.6,8.9-15.4c1.9-2.8,5.8-3.8,5.8-3.8
	c-4.3-1.6-10.2,1.8-15.3,7.6c-5.2,5.9-6.9,14.8-6.9,14.8c3.1-4,4.8-3.4,4.8-3.4c0,1.9,1,3.8,1,3.8c4.6,2.3,10.3,0.5,10.3,0.5
	L36.3,64c3.6,0.5,9.7-4.1,9.7-4.1c0,1.8-0.7,2.8-0.7,2.8c0.9,0.1,1.9-0.1,3.1-0.4c1.7-0.4,3.5-1.1,5.2-1.5l0.6-0.2
	c0.2,0,0.5-0.1,0.7-0.1l0.1,0c0.7-0.1,1.3,0,1.9,0.2c1.7,0.7,2.6,2.4,2.6,2.4c0.1-1.8-0.3-2.4-0.3-2.4c-1.1-2.8-1.8-5-2.3-7
	c-0.4-1.7-0.6-3.1-0.7-4.6c0-0.9,0.2-1.7,0.7-2.5c1-1.8,3-3.1,4.8-3.9c1.1-0.5,1.8-1,2.2-1.4c0.6-0.5,0.8-0.9,0.8-0.9
	C68.1,40.2,70.7,42.7,70.7,42.7z"/>
</svg>
